<svg width="218" height="266" viewBox="0 0 218 266" fill="none" xmlns="http://www.w3.org/2000/svg">
<path d="M0 94.9373V14.4219C20.5859 9.25954 37.6062 4.99156 57.5097 0.000160217L63.8997 40.6933L57.5097 81.3864L29.6068 93.4318L0 94.9373Z" fill="url(#paint0_linear_21_379)"/>
<path d="M57.5103 252.84V93.7215L78.9537 81.6291L108.63 77.7944L115.02 203.115L108.63 239.823L83.0701 252.642L57.5103 252.84Z" fill="#F39321"/>
<path d="M108.63 239.823V88.2194L134.19 91.1298L159.749 104.146C159.749 106.136 159.749 250.852 159.749 252.84L134.19 252.642L108.63 239.823Z" fill="#F3A141"/>
<path fill-rule="evenodd" clip-rule="evenodd" d="M95.6292 243.134C81.7362 246.671 61.7952 251.749 57.51 252.84L108.63 265.659H108.63L159.749 252.84L146.872 249.561C132.974 246.022 112.928 240.918 108.63 239.823L108.63 239.823C108.63 239.823 108.63 239.823 108.63 239.823C108.63 239.823 108.63 239.823 108.63 239.823V239.823C106.724 240.309 101.767 241.571 95.6292 243.134Z" fill="#F8C67C"/>
<path d="M57.51 81.3864V0.000137329C63.8535 1.59101 102.377 11.2516 108.63 12.8194L115.02 53.1254L108.63 93.4314C101.084 93.0631 85.1982 92.2871 80.7269 92.0687C77.9072 90.7718 60.3399 82.6884 57.51 81.3864Z" fill="#6BCD49"/>
<path fill-rule="evenodd" clip-rule="evenodd" d="M57.5097 81.3863C50.5012 83.0375 6.99403 93.2891 0 94.9372L57.5097 109.359L57.5099 109.358V109.359C72.5608 104.67 77.7117 103.065 81.3528 101.93C86.2799 100.395 88.4423 99.7213 108.63 93.4318C104.732 92.5132 88.0769 88.5888 74.6607 85.4276C66.6639 83.5433 59.8178 81.9302 57.5099 81.3863V81.3868L57.5097 81.3863Z" fill="#C9F87C"/>
<path d="M159.749 81.3865L166.139 40.6937L159.749 0.00062561C153.565 1.55133 114.854 11.2589 108.629 12.8199C108.629 17.296 108.629 88.9562 108.629 93.4319L134.189 92.4965L159.749 81.3865Z" fill="#5EBA3F"/>
<path d="M217.259 94.9373V14.4219C196.673 9.25954 179.652 4.99156 159.749 0.000160217C159.749 4.52409 159.749 76.8629 159.749 81.3864L188.504 93.4318L217.259 94.9373Z" fill="#6BCD49"/>
<path fill-rule="evenodd" clip-rule="evenodd" d="M159.749 109.359L217.259 94.9373C210.265 93.2891 166.758 83.0377 159.749 81.3864L159.749 81.3864L159.749 81.3864C159.749 81.3864 159.749 81.3864 159.749 81.3864V81.3865L134.189 87.4089L108.629 93.4314C110.845 94.1216 112.964 94.782 114.992 95.414C122.653 97.8009 129.01 99.7816 134.284 101.424C157.211 108.568 159.659 109.331 159.749 109.359V109.359C159.725 109.351 159.554 109.298 159.749 109.359V109.359L159.749 109.359C159.749 109.359 159.749 109.359 159.749 109.359L159.749 109.359C159.751 109.359 159.752 109.36 159.752 109.36C159.752 109.36 159.751 109.359 159.749 109.359Z" fill="#C9F87C"/>
<defs>
<linearGradient id="paint0_linear_21_379" x1="31.9498" y1="94.9373" x2="31.9498" y2="0.000160217" gradientUnits="userSpaceOnUse">
<stop stop-color="#89F1FF"/>
<stop offset="1" stop-color="#6292DB"/>
</linearGradient>
</defs>
</svg>
